<svg width="512" height="512" viewBox="0 0 512 512" fill="none" xmlns="http://www.w3.org/2000/svg">
<g clip-path="url(#clip0_930_19087)">
<rect x="60" y="30" width="392" height="210" fill="#176AA2"/>
<rect x="59.8438" y="33.2461" width="392.312" height="33.2468" fill="#125582"/>
<g filter="url(#filter0_f_930_19087)">
<path d="M159.585 162.909C132.987 133.652 108.609 76.4671 109.718 63.1684L86.4417 59.8438L69.8184 83.1165L126.338 149.61L159.585 162.909Z" fill="#125582"/>
</g>
<g filter="url(#filter1_f_930_19087)">
<path d="M352.415 162.909C379.013 133.652 403.391 76.4671 402.282 63.1684L425.558 59.8438L442.182 83.1165L385.662 149.61L352.415 162.909Z" fill="#125582"/>
</g>
<path d="M256 186.011C155.826 186.011 124 30.0117 124 30.0117L72 32.2617L51.9999 162.512L91.9999 487.012L256 354.326L420 487.012L468 146.512L436 40.2618L388 30.0118C388 30.0118 356.174 186.011 256 186.011Z" fill="url(#paint0_linear_930_19087)" fill-opacity="0.8"/>
<path d="M455.462 0C470.577 0 482.829 12.252 482.829 27.3672V484.663C482.829 494.907 477.111 504.295 468.007 508.99C458.903 513.685 447.938 512.9 439.593 506.96L255.915 376.214L72.2373 506.96C63.8919 512.9 52.9266 513.685 43.8223 508.99C34.718 504.295 29 494.907 29 484.663V27.3672C29 12.252 41.252 0 56.3672 0H455.462ZM84.2871 54.7344C108.596 103.415 170.373 207.013 255.89 207.013C341.406 207.013 403.183 103.415 427.492 54.7344H84.2871Z" fill="url(#paint1_linear_930_19087)"/>
</g>
<defs>
<filter id="filter0_f_930_19087" x="63.169" y="53.1944" width="103.065" height="116.365" filterUnits="userSpaceOnUse" color-interpolation-filters="sRGB">
<feFlood flood-opacity="0" result="BackgroundImageFix"/>
<feBlend mode="normal" in="SourceGraphic" in2="BackgroundImageFix" result="shape"/>
<feGaussianBlur stdDeviation="3.32468" result="effect1_foregroundBlur_930_19087"/>
</filter>
<filter id="filter1_f_930_19087" x="345.766" y="53.1944" width="103.065" height="116.365" filterUnits="userSpaceOnUse" color-interpolation-filters="sRGB">
<feFlood flood-opacity="0" result="BackgroundImageFix"/>
<feBlend mode="normal" in="SourceGraphic" in2="BackgroundImageFix" result="shape"/>
<feGaussianBlur stdDeviation="3.32468" result="effect1_foregroundBlur_930_19087"/>
</filter>
<linearGradient id="paint0_linear_930_19087" x1="260" y1="73.1416" x2="260" y2="487.012" gradientUnits="userSpaceOnUse">
<stop stop-color="white" stop-opacity="0"/>
<stop offset="0.365385" stop-color="white" stop-opacity="0.4"/>
<stop offset="1" stop-color="white" stop-opacity="0"/>
</linearGradient>
<linearGradient id="paint1_linear_930_19087" x1="255.915" y1="0" x2="255.915" y2="512.033" gradientUnits="userSpaceOnUse">
<stop offset="0.288462" stop-color="#7BCAFF"/>
<stop offset="0.870192" stop-color="#1669A2"/>
</linearGradient>
<clipPath id="clip0_930_19087">
<rect width="512" height="512" fill="white"/>
</clipPath>
</defs>
</svg>
